<svg width="592" height="100" viewBox="0 0 592 100" fill="none" xmlns="http://www.w3.org/2000/svg">
<g clip-path="url(#clip0)">
<path d="M165.776 28.189V39.6063H173.414V50.0787H165.776V64.7244C165.776 67.4541 167.22 68.8189 170.107 68.8189C171.052 68.8189 172.102 68.6876 173.257 68.4252V78.3465C171.787 79.0811 169.713 79.4488 167.036 79.4488C162.994 79.4488 159.792 78.3202 157.43 76.063C155.12 73.8057 153.965 70.7349 153.965 66.8504V50.0787H147.036V39.6063H149.005C151 39.6063 152.496 39.0289 153.493 37.874C154.543 36.6667 155.068 35.1181 155.068 33.2283V28.189H165.776ZM206.316 39.6063V51.4173C205.214 51.1549 203.954 51.0236 202.537 51.0236C199.86 51.0236 197.655 51.8898 195.923 53.622C194.243 55.3543 193.403 58.0315 193.403 61.6535V78.7402H181.435V39.6063H193.009V44.8819C193.954 42.8872 195.398 41.4435 197.34 40.5512C199.283 39.6588 201.225 39.2126 203.167 39.2126C204.375 39.2126 205.424 39.3439 206.316 39.6063ZM211.522 67.9528C211.522 64.6457 212.598 61.9947 214.75 60C216.902 57.9528 219.685 56.6667 223.097 56.1417L232.309 54.7244C234.199 54.462 235.144 53.5695 235.144 52.0472C235.144 50.8399 234.619 49.8425 233.569 49.0551C232.572 48.2152 231.181 47.7953 229.396 47.7953C227.402 47.7953 225.8 48.3727 224.593 49.5276C223.438 50.6299 222.808 51.9685 222.703 53.5433L212.309 51.4173C212.572 48.1628 214.173 45.1968 217.113 42.5197C220.105 39.79 224.225 38.4252 229.475 38.4252C235.406 38.4252 239.764 39.8425 242.546 42.6772C245.38 45.5118 246.798 49.1339 246.798 53.5433V72.6772C246.798 75.1443 246.955 77.1654 247.27 78.7402H236.483C236.22 77.6903 236.089 76.2205 236.089 74.3307C233.831 78.0053 230.157 79.8425 225.065 79.8425C220.918 79.8425 217.611 78.6876 215.144 76.378C212.729 74.0158 211.522 71.2073 211.522 67.9528ZM227.979 71.1811C230.026 71.1811 231.732 70.5774 233.097 69.3701C234.461 68.1628 235.144 66.168 235.144 63.3858V61.6535L227.742 62.8346C224.803 63.3071 223.333 64.7506 223.333 67.1654C223.333 68.2677 223.701 69.2126 224.435 70C225.223 70.7874 226.404 71.1811 227.979 71.1811ZM294.296 39.6063L279.414 78.7402H267.367L251.304 39.6063H264.296L273.351 63.937L281.698 39.6063H294.296ZM338.972 39.6063L324.09 78.7402H312.042L295.979 39.6063H308.972L318.027 63.937L326.373 39.6063H338.972ZM352.968 54.4882H368.638C368.533 52.7034 367.824 51.1549 366.512 49.8425C365.252 48.5302 363.336 47.874 360.764 47.874C358.454 47.874 356.616 48.5565 355.252 49.9213C353.887 51.2861 353.126 52.8084 352.968 54.4882ZM369.504 64.6457L379.504 67.4803C378.506 71.1024 376.433 74.0945 373.283 76.4567C370.134 78.7661 366.197 79.9213 361.472 79.9213C355.803 79.9213 350.974 78.0315 346.984 74.252C343.047 70.4724 341.079 65.4069 341.079 59.0551C341.079 52.9659 342.994 48.0053 346.827 44.1732C350.711 40.3412 355.305 38.4252 360.606 38.4252C366.695 38.4252 371.472 40.21 374.937 43.7795C378.454 47.2966 380.213 52.2047 380.213 58.5039C380.213 60.4987 380.134 61.7323 379.976 62.2047H352.732C352.837 64.3569 353.756 66.168 355.488 67.6378C357.22 69.0551 359.268 69.7638 361.63 69.7638C365.672 69.7638 368.297 68.0577 369.504 64.6457ZM399.865 78.7402H387.897V21.7323H399.865V78.7402ZM422.002 78.7402H410.427V21.7323H422.16V43.3071C423.052 41.9947 424.522 40.8924 426.569 40C428.616 39.1076 430.926 38.6614 433.498 38.6614C439.062 38.6614 443.472 40.5774 446.727 44.4095C450.034 48.189 451.687 53.0709 451.687 59.0551C451.687 65.0394 449.928 69.9738 446.412 73.8583C442.947 77.6903 438.485 79.6063 433.026 79.6063C430.506 79.6063 428.275 79.1339 426.333 78.189C424.391 77.1916 422.947 75.9055 422.002 74.3307V78.7402ZM439.719 59.1339C439.719 55.9843 438.879 53.5958 437.199 51.9685C435.519 50.2887 433.42 49.4488 430.9 49.4488C428.38 49.4488 426.254 50.2887 424.522 51.9685C422.842 53.5958 422.002 55.9843 422.002 59.1339C422.002 62.2309 422.868 64.6457 424.601 66.378C426.333 68.0577 428.432 68.8976 430.9 68.8976C433.367 68.8976 435.44 68.0577 437.12 66.378C438.853 64.6457 439.719 62.2309 439.719 59.1339ZM457.047 67.9528C457.047 64.6457 458.123 61.9947 460.276 60C462.428 57.9528 465.209 56.6667 468.622 56.1417L477.835 54.7244C479.724 54.462 480.669 53.5695 480.669 52.0472C480.669 50.8399 480.144 49.8425 479.094 49.0551C478.097 48.2152 476.706 47.7953 474.921 47.7953C472.926 47.7953 471.325 48.3727 470.118 49.5276C468.963 50.6299 468.333 51.9685 468.228 53.5433L457.835 51.4173C458.097 48.1628 459.698 45.1968 462.638 42.5197C465.63 39.79 469.75 38.4252 475 38.4252C480.931 38.4252 485.288 39.8425 488.071 42.6772C490.905 45.5118 492.323 49.1339 492.323 53.5433V72.6772C492.323 75.1443 492.48 77.1654 492.795 78.7402H482.008C481.745 77.6903 481.614 76.2205 481.614 74.3307C479.357 78.0053 475.682 79.8425 470.591 79.8425C466.443 79.8425 463.136 78.6876 460.669 76.378C458.254 74.0158 457.047 71.2073 457.047 67.9528ZM473.504 71.1811C475.551 71.1811 477.257 70.5774 478.622 69.3701C479.987 68.1628 480.669 66.168 480.669 63.3858V61.6535L473.268 62.8346C470.328 63.3071 468.858 64.7506 468.858 67.1654C468.858 68.2677 469.225 69.2126 469.961 70C470.748 70.7874 471.929 71.1811 473.504 71.1811ZM513.968 78.7402H502.393V21.7323H514.125V43.3071C515.018 41.9947 516.487 40.8924 518.535 40C520.582 39.1076 522.892 38.6614 525.464 38.6614C531.028 38.6614 535.438 40.5774 538.692 44.4095C541.999 48.189 543.653 53.0709 543.653 59.0551C543.653 65.0394 541.894 69.9738 538.377 73.8583C534.913 77.6903 530.451 79.6063 524.991 79.6063C522.472 79.6063 520.241 79.1339 518.298 78.189C516.357 77.1916 514.913 75.9055 513.968 74.3307V78.7402ZM531.684 59.1339C531.684 55.9843 530.845 53.5958 529.165 51.9685C527.485 50.2887 525.385 49.4488 522.865 49.4488C520.346 49.4488 518.22 50.2887 516.487 51.9685C514.808 53.5958 513.968 55.9843 513.968 59.1339C513.968 62.2309 514.834 64.6457 516.566 66.378C518.298 68.0577 520.398 68.8976 522.865 68.8976C525.333 68.8976 527.406 68.0577 529.086 66.378C530.818 64.6457 531.684 62.2309 531.684 59.1339ZM564.73 93.7795H552.131L561.029 73.4646L544.572 39.6063H557.958L567.486 60.5512L576.147 39.6063H588.824L564.73 93.7795Z" fill="#B76E79"/>
<path d="M165.776 28.189H167.351V26.6142H165.776V28.189ZM165.776 39.6063H164.202V41.1811H165.776V39.6063ZM173.414 39.6063H174.989V38.0315H173.414V39.6063ZM173.414 50.0787V51.6535H174.989V50.0787H173.414ZM165.776 50.0787V48.5039H164.202V50.0787H165.776ZM173.257 68.4252H174.832V66.4523L172.908 66.8895L173.257 68.4252ZM173.257 78.3465L173.961 79.7551L174.832 79.3197V78.3465H173.257ZM157.43 76.063L156.329 77.1893L156.335 77.1954L156.343 77.2016L157.43 76.063ZM153.965 50.0787H155.54V48.5039H153.965V50.0787ZM147.036 50.0787H145.461V51.6535H147.036V50.0787ZM147.036 39.6063V38.0315H145.461V39.6063H147.036ZM153.493 37.874L152.305 36.8406L152.302 36.8447L153.493 37.874ZM155.068 28.189V26.6142H153.493V28.189H155.068ZM164.202 28.189V39.6063H167.351V28.189H164.202ZM165.776 41.1811H173.414V38.0315H165.776V41.1811ZM171.839 39.6063V50.0787H174.989V39.6063H171.839ZM173.414 48.5039H165.776V51.6535H173.414V48.5039ZM164.202 50.0787V64.7244H167.351V50.0787H164.202ZM164.202 64.7244C164.202 66.3553 164.637 67.8617 165.777 68.9396C166.901 70.0018 168.443 70.3937 170.107 70.3937V67.2441C168.885 67.2441 168.261 66.9536 167.941 66.6509C167.638 66.3639 167.351 65.8232 167.351 64.7244H164.202ZM170.107 70.3937C171.194 70.3937 172.364 70.2431 173.606 69.9609L172.908 66.8895C171.84 67.1322 170.909 67.2441 170.107 67.2441V70.3937ZM171.682 68.4252V78.3465H174.832V68.4252H171.682ZM172.553 76.9379C171.398 77.5156 169.606 77.874 167.036 77.874V81.0236C169.822 81.0236 172.177 80.6472 173.961 79.7551L172.553 76.9379ZM167.036 77.874C163.298 77.874 160.521 76.8388 158.518 74.9244L156.343 77.2016C159.063 79.8016 162.691 81.0236 167.036 81.0236V77.874ZM158.531 74.9367C156.584 73.0346 155.54 70.4032 155.54 66.8504H152.391C152.391 71.0665 153.657 74.5769 156.329 77.1893L158.531 74.9367ZM155.54 66.8504V50.0787H152.391V66.8504H155.54ZM153.965 48.5039H147.036V51.6535H153.965V48.5039ZM148.611 50.0787V39.6063H145.461V50.0787H148.611ZM147.036 41.1811H149.005V38.0315H147.036V41.1811ZM149.005 41.1811C151.308 41.1811 153.302 40.5038 154.685 38.9033L152.302 36.8447C151.689 37.5539 150.692 38.0315 149.005 38.0315V41.1811ZM154.681 38.9074C156.024 37.3631 156.643 35.4254 156.643 33.2283H153.493C153.493 34.8108 153.061 35.9702 152.305 36.8406L154.681 38.9074ZM156.643 33.2283V28.189H153.493V33.2283H156.643ZM155.068 29.7638H165.776V26.6142H155.068V29.7638ZM206.317 39.6063H207.891V38.4279L206.761 38.0955L206.317 39.6063ZM206.317 51.4173L205.952 52.9493L207.891 53.4111V51.4173H206.317ZM195.923 53.622L194.809 52.5085L194.801 52.5171L194.792 52.5257L195.923 53.622ZM193.403 78.7402V80.315H194.978V78.7402H193.403ZM181.435 78.7402H179.86V80.315H181.435V78.7402ZM181.435 39.6063V38.0315H179.86V39.6063H181.435ZM193.009 39.6063H194.584V38.0315H193.009V39.6063ZM193.009 44.8819H191.435L194.433 45.5561L193.009 44.8819ZM197.34 40.5512L197.998 41.9822L197.34 40.5512ZM204.742 39.6063V51.4173H207.891V39.6063H204.742ZM206.681 49.8853C205.434 49.5883 204.048 49.4488 202.537 49.4488V52.5984C203.861 52.5984 204.994 52.7213 205.952 52.9493L206.681 49.8853ZM202.537 49.4488C199.485 49.4488 196.866 50.452 194.809 52.5085L197.036 54.7356C198.445 53.3275 200.235 52.5984 202.537 52.5984V49.4488ZM194.792 52.5257C192.713 54.6703 191.828 57.8239 191.828 61.6535H194.978C194.978 58.2391 195.773 56.0383 197.054 54.7183L194.792 52.5257ZM191.828 61.6535V78.7402H194.978V61.6535H191.828ZM193.403 77.1653H181.435V80.315H193.403V77.1653ZM183.009 78.7402V39.6063H179.86V78.7402H183.009ZM181.435 41.1811H193.009V38.0315H181.435V41.1811ZM191.435 39.6063V44.8819H194.584V39.6063H191.435ZM194.433 45.5561C195.225 43.8838 196.404 42.7146 197.998 41.9822L196.683 39.1201C194.393 40.1724 192.684 41.8905 191.587 44.2077L194.433 45.5561ZM197.998 41.9822C199.755 41.1749 201.474 40.7874 203.167 40.7874V37.6378C200.976 37.6378 198.81 38.1427 196.683 39.1201L197.998 41.9822ZM203.167 40.7874C204.266 40.7874 205.16 40.9076 205.872 41.1171L206.761 38.0955C205.689 37.7801 204.483 37.6378 203.167 37.6378V40.7874ZM214.75 60L215.821 61.155L215.828 61.1481L215.836 61.141L214.75 60ZM223.097 56.1417L223.336 57.6982L223.097 56.1417ZM232.309 54.7244L232.093 53.1646L232.082 53.1661L232.07 53.1679L232.309 54.7244ZM233.569 49.0551L232.555 50.2597L232.589 50.2883L232.624 50.315L233.569 49.0551ZM224.593 49.5276L225.68 50.6667L225.682 50.6656L224.593 49.5276ZM222.703 53.5433L222.387 55.0861L224.154 55.4476L224.275 53.648L222.703 53.5433ZM212.309 51.4173L210.74 51.2907L210.628 52.6807L211.994 52.9602L212.309 51.4173ZM217.113 42.5197L218.173 43.684L218.174 43.6831L217.113 42.5197ZM242.546 42.6772L241.422 43.7802L241.427 43.7855L241.432 43.7907L242.546 42.6772ZM247.27 78.7402V80.315H249.191L248.814 78.4313L247.27 78.7402ZM236.483 78.7402L234.955 79.122L235.254 80.315H236.483V78.7402ZM236.089 74.3307H237.664V68.7583L234.747 73.5065L236.089 74.3307ZM215.144 76.3779L214.043 77.5037L214.055 77.5157L214.068 77.5276L215.144 76.3779ZM233.097 69.3701L232.054 68.1905L233.097 69.3701ZM235.144 61.6535H236.719V59.8075L234.896 60.0984L235.144 61.6535ZM227.743 62.8346L227.494 61.2795L227.493 61.2798L227.743 62.8346ZM224.435 70L223.284 71.0745L223.303 71.0943L223.322 71.1135L224.435 70ZM213.097 67.9528C213.097 65.0226 214.033 62.8124 215.821 61.155L213.68 58.845C211.164 61.1772 209.947 64.2687 209.947 67.9528H213.097ZM215.836 61.141C217.719 59.3497 220.189 58.1824 223.336 57.6982L222.857 54.5853C219.181 55.1509 216.087 56.5558 213.665 58.859L215.836 61.141ZM223.336 57.6982L232.549 56.2809L232.07 53.1679L222.857 54.5853L223.336 57.6982ZM232.526 56.2842C233.651 56.128 234.719 55.7571 235.517 55.0031C236.358 54.2082 236.719 53.1609 236.719 52.0472H233.569C233.569 52.4559 233.457 52.6159 233.354 52.7134C233.208 52.8518 232.858 53.0583 232.093 53.1646L232.526 56.2842ZM236.719 52.0472C236.719 50.2963 235.92 48.8501 234.514 47.7953L232.624 50.315C233.318 50.8349 233.569 51.3835 233.569 52.0472H236.719ZM234.583 47.8505C233.213 46.6962 231.416 46.2205 229.396 46.2205V49.3701C230.946 49.3701 231.931 49.7342 232.555 50.2597L234.583 47.8505ZM229.396 46.2205C227.08 46.2205 225.061 46.9013 223.505 48.3895L225.682 50.6656C226.54 49.844 227.724 49.3701 229.396 49.3701V46.2205ZM223.506 48.3884C222.069 49.7594 221.264 51.4655 221.132 53.4386L224.275 53.648C224.353 52.4715 224.807 51.5005 225.68 50.6667L223.506 48.3884ZM223.019 52.0005L212.625 49.8745L211.994 52.9602L222.387 55.0861L223.019 52.0005ZM213.88 51.5439C214.103 48.7701 215.461 46.154 218.173 43.684L216.052 41.3553C212.885 44.2397 211.041 47.5553 210.74 51.2907L213.88 51.5439ZM218.174 43.6831C220.798 41.289 224.498 40 229.475 40V36.8504C223.953 36.8504 219.411 38.2911 216.051 41.3563L218.174 43.6831ZM229.475 40C235.191 40 239.055 41.3686 241.422 43.7802L243.67 41.5741C240.472 38.3164 235.622 36.8504 229.475 36.8504V40ZM241.432 43.7907C243.941 46.2991 245.223 49.5057 245.223 53.5433H248.372C248.372 48.762 246.82 44.7245 243.659 41.5636L241.432 43.7907ZM245.223 53.5433V72.6772H248.372V53.5433H245.223ZM245.223 72.6772C245.223 75.1992 245.383 77.3338 245.726 79.0488L248.814 78.4313C248.528 76.9969 248.372 75.0894 248.372 72.6772H245.223ZM247.27 77.1653H236.483V80.315H247.27V77.1653ZM238.01 78.3582C237.795 77.4926 237.664 76.172 237.664 74.3307H234.514C234.514 76.2689 234.646 77.888 234.955 79.122L238.01 78.3582ZM234.747 73.5065C232.832 76.6236 229.726 78.2677 225.065 78.2677V81.4173C230.589 81.4173 234.831 79.3866 237.431 75.155L234.747 73.5065ZM225.065 78.2677C221.223 78.2677 218.333 77.2059 216.22 75.2283L214.068 77.5276C216.89 80.1693 220.614 81.4173 225.065 81.4173V78.2677ZM216.246 75.2522C214.12 73.1737 213.097 70.766 213.097 67.9528H209.947C209.947 71.6487 211.339 74.8578 214.043 77.5037L216.246 75.2522ZM227.979 72.7559C230.36 72.7559 232.452 72.0435 234.14 70.5496L232.054 68.1905C231.013 69.1114 229.693 69.6063 227.979 69.6063V72.7559ZM234.14 70.5496C235.987 68.9155 236.719 66.3813 236.719 63.3858H233.569C233.569 65.9546 232.936 67.41 232.054 68.1905L234.14 70.5496ZM236.719 63.3858V61.6535H233.569V63.3858H236.719ZM234.896 60.0984L227.494 61.2795L227.991 64.3898L235.392 63.2087L234.896 60.0984ZM227.493 61.2798C225.838 61.5457 224.383 62.1162 223.332 63.1481C222.244 64.2169 221.758 65.614 221.758 67.1654H224.908C224.908 66.302 225.157 65.77 225.539 65.3952C225.958 64.9835 226.708 64.596 227.993 64.3895L227.493 61.2798ZM221.758 67.1654C221.758 68.6562 222.27 69.988 223.284 71.0745L225.587 68.9255C225.131 68.4372 224.908 67.8792 224.908 67.1654H221.758ZM223.322 71.1135C224.509 72.3005 226.161 72.7559 227.979 72.7559V69.6063C226.646 69.6063 225.937 69.2743 225.549 68.8865L223.322 71.1135ZM294.296 39.6063L295.768 40.1661L296.58 38.0315H294.296V39.6063ZM279.414 78.7402V80.315H280.5L280.886 79.3L279.414 78.7402ZM267.367 78.7402L265.91 79.3378L266.311 80.315H267.367V78.7402ZM251.304 39.6063V38.0315H248.955L249.847 40.2042L251.304 39.6063ZM264.296 39.6063L265.772 39.057L265.39 38.0315H264.296V39.6063ZM273.351 63.937L271.875 64.4863L273.412 68.6142L274.841 64.448L273.351 63.937ZM281.698 39.6063V38.0315H280.572L280.208 39.0953L281.698 39.6063ZM292.824 39.0465L277.942 78.1804L280.886 79.3L295.768 40.1661L292.824 39.0465ZM279.414 77.1653H267.367V80.315H279.414V77.1653ZM268.824 78.1422L252.761 39.0083L249.847 40.2042L265.91 79.3378L268.824 78.1422ZM251.304 41.1811H264.296V38.0315H251.304V41.1811ZM262.82 40.1556L271.875 64.4863L274.827 63.3877L265.772 39.057L262.82 40.1556ZM274.841 64.448L283.187 40.1173L280.208 39.0953L271.861 63.426L274.841 64.448ZM281.698 41.1811H294.296V38.0315H281.698V41.1811ZM338.972 39.6063L340.443 40.1661L341.255 38.0315H338.972V39.6063ZM324.09 78.7402V80.315H325.176L325.561 79.3L324.09 78.7402ZM312.043 78.7402L310.586 79.3378L310.987 80.315H312.043V78.7402ZM295.98 39.6063V38.0315H293.631L294.523 40.2042L295.98 39.6063ZM308.972 39.6063L310.447 39.057L310.066 38.0315H308.972V39.6063ZM318.027 63.937L316.551 64.4863L318.087 68.6142L319.517 64.448L318.027 63.937ZM326.373 39.6063V38.0315H325.249L324.883 39.0953L326.373 39.6063ZM337.5 39.0465L322.618 78.1804L325.561 79.3L340.443 40.1661L337.5 39.0465ZM324.09 77.1653H312.043V80.315H324.09V77.1653ZM313.499 78.1422L297.436 39.0083L294.523 40.2042L310.586 79.3378L313.499 78.1422ZM295.98 41.1811H308.972V38.0315H295.98V41.1811ZM307.496 40.1556L316.551 64.4863L319.502 63.3877L310.447 39.057L307.496 40.1556ZM319.517 64.448L327.863 40.1173L324.883 39.0953L316.537 63.426L319.517 64.448ZM326.373 41.1811H338.972V38.0315H326.373V41.1811ZM352.969 54.4882L351.401 54.3412L351.239 56.063H352.969V54.4882ZM368.638 54.4882V56.063H370.308L370.209 54.3957L368.638 54.4882ZM366.512 49.8425L365.376 50.9331L365.387 50.9447L365.398 50.9561L366.512 49.8425ZM355.252 49.9213L354.139 48.8077L355.252 49.9213ZM369.504 64.6457L369.933 63.1305L368.512 62.7276L368.019 64.1203L369.504 64.6457ZM379.504 67.4803L381.022 67.8984L381.437 66.3915L379.933 65.9652L379.504 67.4803ZM373.283 76.4567L374.215 77.7266L374.221 77.7216L374.228 77.7165L373.283 76.4567ZM346.984 74.252L345.894 75.388L345.901 75.3952L346.984 74.252ZM346.827 44.1732L345.72 43.0521L345.713 43.0597L346.827 44.1732ZM374.937 43.7795L373.807 44.8763L373.815 44.8848L373.824 44.8931L374.937 43.7795ZM379.976 62.2047V63.7795H381.111L381.47 62.7027L379.976 62.2047ZM352.732 62.2047V60.6299H351.079L351.159 62.2814L352.732 62.2047ZM355.488 67.6378L354.469 68.8386L354.48 68.8477L354.491 68.8566L355.488 67.6378ZM352.969 56.063H368.638V52.9134H352.969V56.063ZM370.209 54.3957C370.081 52.2102 369.199 50.3027 367.625 48.729L365.398 50.9561C366.449 52.0071 366.984 53.1967 367.065 54.5806L370.209 54.3957ZM367.648 48.7519C365.986 47.0205 363.584 46.2992 360.764 46.2992V49.4488C363.087 49.4488 364.518 50.0398 365.376 50.9331L367.648 48.7519ZM360.764 46.2992C358.124 46.2992 355.855 47.0906 354.139 48.8077L356.365 51.0348C357.378 50.0222 358.783 49.4488 360.764 49.4488V46.2992ZM354.139 48.8077C352.554 50.3924 351.597 52.2442 351.401 54.3412L354.536 54.6352C354.654 53.3727 355.22 52.1797 356.365 51.0348L354.139 48.8077ZM369.074 66.1608L379.074 68.9954L379.933 65.9652L369.933 63.1305L369.074 66.1608ZM377.986 67.0622C377.086 70.331 375.224 73.0332 372.339 75.1968L374.228 77.7165C377.643 75.1557 379.928 71.8737 381.022 67.8984L377.986 67.0622ZM372.352 75.1868C369.525 77.2598 365.934 78.3465 361.472 78.3465V81.4961C366.46 81.4961 370.743 80.2732 374.215 77.7266L372.352 75.1868ZM361.472 78.3465C356.192 78.3465 351.754 76.6016 348.067 73.1087L345.901 75.3952C350.193 79.4614 355.414 81.4961 361.472 81.4961V78.3465ZM348.075 73.1159C344.498 69.6824 342.654 65.0544 342.654 59.0551H339.504C339.504 65.7592 341.596 71.2624 345.894 75.388L348.075 73.1159ZM342.654 59.0551C342.654 53.3272 344.441 48.7858 347.94 45.2868L345.713 43.0597C341.548 47.2246 339.504 52.6046 339.504 59.0551H342.654ZM347.932 45.2943C351.532 41.7435 355.732 40 360.606 40V36.8504C354.877 36.8504 349.891 38.9389 345.72 43.0521L347.932 45.2943ZM360.606 40C366.372 40 370.703 41.6785 373.807 44.8763L376.067 42.6827C372.242 38.7414 367.019 36.8504 360.606 36.8504V40ZM373.824 44.8931C376.972 48.0413 378.638 52.5054 378.638 58.5039H381.787C381.787 51.9041 379.936 46.552 376.05 42.666L373.824 44.8931ZM378.638 58.5039C378.638 59.4854 378.618 60.2553 378.582 60.8249C378.564 61.1097 378.543 61.3294 378.52 61.4916C378.495 61.6675 378.477 61.7231 378.483 61.7068L381.47 62.7027C381.621 62.2506 381.686 61.6364 381.725 61.0255C381.768 60.3615 381.787 59.5172 381.787 58.5039H378.638ZM379.976 60.6299H352.732V63.7795H379.976V60.6299ZM351.159 62.2814C351.287 64.8947 352.425 67.1041 354.469 68.8386L356.507 66.437C355.087 65.2319 354.387 63.8191 354.305 62.128L351.159 62.2814ZM354.491 68.8566C356.521 70.5176 358.926 71.3386 361.63 71.3386V68.189C359.609 68.189 357.92 67.5927 356.485 66.419L354.491 68.8566ZM361.63 71.3386C363.868 71.3386 365.856 70.8657 367.488 69.8046C369.135 68.7341 370.288 67.1505 370.988 65.171L368.019 64.1203C367.513 65.5529 366.75 66.5283 365.772 67.1639C364.78 67.8087 363.434 68.189 361.63 68.189V71.3386ZM399.865 78.7402V80.315H401.44V78.7402H399.865ZM387.897 78.7402H386.322V80.315H387.897V78.7402ZM387.897 21.7323V20.1575H386.322V21.7323H387.897ZM399.865 21.7323H401.44V20.1575H399.865V21.7323ZM399.865 77.1653H387.897V80.315H399.865V77.1653ZM389.472 78.7402V21.7323H386.322V78.7402H389.472ZM387.897 23.3071H399.865V20.1575H387.897V23.3071ZM398.291 21.7323V78.7402H401.44V21.7323H398.291ZM422.002 78.7402V80.315H423.577V78.7402H422.002ZM410.428 78.7402H408.853V80.315H410.428V78.7402ZM410.428 21.7323V20.1575H408.853V21.7323H410.428ZM422.16 21.7323H423.735V20.1575H422.16V21.7323ZM422.16 43.3071H420.585V48.4235L423.461 44.1926L422.16 43.3071ZM426.569 40L425.939 38.5564L426.569 40ZM446.727 44.4094L445.526 45.4289L445.534 45.4377L445.541 45.4464L446.727 44.4094ZM446.412 73.8583L445.244 72.8013L445.243 72.8021L446.412 73.8583ZM426.333 78.189L425.613 79.5898L425.628 79.5976L425.644 79.6047L426.333 78.189ZM422.002 74.3307L423.353 73.5205L420.428 68.6452V74.3307H422.002ZM437.199 51.9685L436.085 53.082L436.095 53.0909L436.103 53.0996L437.199 51.9685ZM424.522 51.9685L425.617 53.0996L425.618 53.099L424.522 51.9685ZM424.601 66.3779L423.487 67.4915L423.495 67.5001L423.504 67.5085L424.601 66.3779ZM437.12 66.3779L438.234 67.4915L437.12 66.3779ZM422.002 77.1653H410.428V80.315H422.002V77.1653ZM412.002 78.7402V21.7323H408.853V78.7402H412.002ZM410.428 23.3071H422.16V20.1575H410.428V23.3071ZM420.585 21.7323V43.3071H423.735V21.7323H420.585ZM423.461 44.1926C424.132 43.2068 425.317 42.2635 427.198 41.4436L425.939 38.5564C423.726 39.5213 421.972 40.7826 420.858 42.4216L423.461 44.1926ZM427.198 41.4436C429.019 40.6499 431.109 40.2362 433.498 40.2362V37.0866C430.742 37.0866 428.213 37.5653 425.939 38.5564L427.198 41.4436ZM433.498 40.2362C438.656 40.2362 442.605 41.9894 445.526 45.4289L447.927 43.39C444.339 39.1654 439.469 37.0866 433.498 37.0866V40.2362ZM445.541 45.4464C448.55 48.8859 450.113 53.3754 450.113 59.0551H453.262C453.262 52.7663 451.517 47.492 447.912 43.3724L445.541 45.4464ZM450.113 59.0551C450.113 64.7081 448.461 69.2476 445.244 72.8013L447.579 74.9152C451.395 70.6999 453.262 65.3706 453.262 59.0551H450.113ZM445.243 72.8021C442.096 76.2833 438.069 78.0315 433.026 78.0315V81.1811C438.902 81.1811 443.798 79.0976 447.58 74.9144L445.243 72.8021ZM433.026 78.0315C430.705 78.0315 428.717 77.5972 427.021 76.7728L425.644 79.6047C427.834 80.6701 430.307 81.1811 433.026 81.1811V78.0315ZM427.052 76.7881C425.321 75.8993 424.12 74.7993 423.353 73.5205L420.652 75.1409C421.774 77.0117 423.46 78.4839 425.613 79.5898L427.052 76.7881ZM420.428 74.3307V78.7402H423.577V74.3307H420.428ZM441.294 59.1339C441.294 55.7109 440.376 52.8531 438.294 50.8374L436.103 53.0996C437.382 54.3385 438.144 56.2576 438.144 59.1339H441.294ZM438.313 50.855C436.318 48.8605 433.809 47.874 430.9 47.874V51.0236C433.03 51.0236 434.72 51.7169 436.085 53.082L438.313 50.855ZM430.9 47.874C427.991 47.874 425.465 48.8596 423.425 50.8379L425.618 53.099C427.043 51.7179 428.769 51.0236 430.9 51.0236V47.874ZM423.426 50.8374C421.345 52.8531 420.428 55.7109 420.428 59.1339H423.577C423.577 56.2576 424.339 54.3385 425.617 53.0996L423.426 50.8374ZM420.428 59.1339C420.428 62.5325 421.386 65.3908 423.487 67.4915L425.714 65.2644C424.35 63.9005 423.577 61.9294 423.577 59.1339H420.428ZM423.504 67.5085C425.538 69.4802 428.033 70.4724 430.9 70.4724V67.3228C428.831 67.3228 427.128 66.6352 425.697 65.2474L423.504 67.5085ZM430.9 70.4724C433.766 70.4724 436.246 69.4791 438.234 67.4915L436.006 65.2644C434.635 66.6364 432.967 67.3228 430.9 67.3228V70.4724ZM438.234 67.4915C440.335 65.3908 441.294 62.5325 441.294 59.1339H438.144C438.144 61.9294 437.37 63.9005 436.006 65.2644L438.234 67.4915ZM460.276 60L461.346 61.155L461.354 61.1481L461.361 61.141L460.276 60ZM468.622 56.1417L468.861 57.6982L468.622 56.1417ZM477.835 54.7244L477.617 53.1646L477.606 53.1661L477.594 53.1679L477.835 54.7244ZM479.095 49.0551L478.08 50.2597L478.113 50.2883L478.15 50.315L479.095 49.0551ZM470.118 49.5276L471.205 50.6667L471.206 50.6656L470.118 49.5276ZM468.228 53.5433L467.913 55.0861L469.68 55.4476L469.799 53.648L468.228 53.5433ZM457.835 51.4173L456.265 51.2907L456.153 52.6807L457.519 52.9602L457.835 51.4173ZM462.638 42.5197L463.698 43.684L463.698 43.6831L462.638 42.5197ZM488.071 42.6772L486.946 43.7802L486.952 43.7855L486.957 43.7907L488.071 42.6772ZM492.795 78.7402V80.315H494.716L494.339 78.4313L492.795 78.7402ZM482.008 78.7402L480.48 79.122L480.778 80.315H482.008V78.7402ZM481.614 74.3307H483.189V68.7583L480.272 73.5065L481.614 74.3307ZM460.669 76.3779L459.568 77.5037L459.58 77.5157L459.593 77.5276L460.669 76.3779ZM478.622 69.3701L477.578 68.1905L478.622 69.3701ZM480.669 61.6535H482.244V59.8075L480.42 60.0984L480.669 61.6535ZM473.268 62.8346L473.019 61.2795L473.017 61.2798L473.268 62.8346ZM469.961 70L468.809 71.0745L468.828 71.0943L468.846 71.1135L469.961 70ZM458.622 67.9528C458.622 65.0226 459.557 62.8124 461.346 61.155L459.205 58.845C456.688 61.1772 455.472 64.2687 455.472 67.9528H458.622ZM461.361 61.141C463.244 59.3497 465.713 58.1824 468.861 57.6982L468.382 54.5853C464.706 55.1509 461.611 56.5558 459.19 58.859L461.361 61.141ZM468.861 57.6982L478.074 56.2809L477.594 53.1679L468.382 54.5853L468.861 57.6982ZM478.051 56.2842C479.176 56.128 480.243 55.7571 481.042 55.0031C481.883 54.2082 482.244 53.1609 482.244 52.0472H479.095C479.095 52.4559 478.982 52.6159 478.879 52.7134C478.732 52.8518 478.383 53.0583 477.617 53.1646L478.051 56.2842ZM482.244 52.0472C482.244 50.2963 481.446 48.8501 480.039 47.7953L478.15 50.315C478.843 50.8349 479.095 51.3835 479.095 52.0472H482.244ZM480.109 47.8505C478.738 46.6962 476.94 46.2205 474.921 46.2205V49.3701C476.471 49.3701 477.456 49.7342 478.08 50.2597L480.109 47.8505ZM474.921 46.2205C472.605 46.2205 470.585 46.9013 469.029 48.3895L471.206 50.6656C472.065 49.844 473.248 49.3701 474.921 49.3701V46.2205ZM469.031 48.3884C467.595 49.7594 466.788 51.4655 466.657 53.4386L469.799 53.648C469.878 52.4715 470.332 51.5005 471.205 50.6667L469.031 48.3884ZM468.543 52.0005L458.15 49.8745L457.519 52.9602L467.913 55.0861L468.543 52.0005ZM459.404 51.5439C459.628 48.7701 460.986 46.154 463.698 43.684L461.577 41.3553C458.41 44.2397 456.566 47.5553 456.265 51.2907L459.404 51.5439ZM463.698 43.6831C466.323 41.289 470.024 40 475 40V36.8504C469.477 36.8504 464.936 38.2911 461.576 41.3563L463.698 43.6831ZM475 40C480.716 40 484.58 41.3686 486.946 43.7802L489.194 41.5741C485.997 38.3164 481.147 36.8504 475 36.8504V40ZM486.957 43.7907C489.465 46.2991 490.748 49.5057 490.748 53.5433H493.898C493.898 48.762 492.345 44.7245 489.184 41.5636L486.957 43.7907ZM490.748 53.5433V72.6772H493.898V53.5433H490.748ZM490.748 72.6772C490.748 75.1992 490.908 77.3338 491.25 79.0488L494.339 78.4313C494.052 76.9969 493.898 75.0894 493.898 72.6772H490.748ZM492.795 77.1653H482.008V80.315H492.795V77.1653ZM483.535 78.3582C483.319 77.4926 483.189 76.172 483.189 74.3307H480.039C480.039 76.2689 480.171 77.888 480.48 79.122L483.535 78.3582ZM480.272 73.5065C478.357 76.6236 475.25 78.2677 470.591 78.2677V81.4173C476.113 81.4173 480.356 79.3866 482.956 75.155L480.272 73.5065ZM470.591 78.2677C466.747 78.2677 463.858 77.2059 461.745 75.2283L459.593 77.5276C462.415 80.1693 466.139 81.4173 470.591 81.4173V78.2677ZM461.77 75.2522C459.646 73.1737 458.622 70.766 458.622 67.9528H455.472C455.472 71.6487 456.863 74.8578 459.568 77.5037L461.77 75.2522ZM473.504 72.7559C475.884 72.7559 477.976 72.0435 479.665 70.5496L477.578 68.1905C476.537 69.1114 475.217 69.6063 473.504 69.6063V72.7559ZM479.665 70.5496C481.513 68.9155 482.244 66.3813 482.244 63.3858H479.095C479.095 65.9546 478.461 67.41 477.578 68.1905L479.665 70.5496ZM482.244 63.3858V61.6535H479.095V63.3858H482.244ZM480.42 60.0984L473.019 61.2795L473.516 64.3898L480.917 63.2087L480.42 60.0984ZM473.017 61.2798C471.363 61.5457 469.907 62.1162 468.857 63.1481C467.769 64.2169 467.283 65.614 467.283 67.1654H470.433C470.433 66.302 470.682 65.77 471.064 65.3952C471.483 64.9835 472.232 64.596 473.517 64.3895L473.017 61.2798ZM467.283 67.1654C467.283 68.6562 467.795 69.988 468.809 71.0745L471.112 68.9255C470.656 68.4372 470.433 67.8792 470.433 67.1654H467.283ZM468.846 71.1135C470.034 72.3005 471.686 72.7559 473.504 72.7559V69.6063C472.172 69.6063 471.461 69.2743 471.074 68.8865L468.846 71.1135ZM513.968 78.7402V80.315H515.543V78.7402H513.968ZM502.393 78.7402H500.818V80.315H502.393V78.7402ZM502.393 21.7323V20.1575H500.818V21.7323H502.393ZM514.125 21.7323H515.7V20.1575H514.125V21.7323ZM514.125 43.3071H512.55V48.4235L515.428 44.1926L514.125 43.3071ZM518.535 40L517.906 38.5564L518.535 40ZM538.692 44.4094L537.492 45.4289L537.5 45.4377L537.507 45.4464L538.692 44.4094ZM538.377 73.8583L537.21 72.8013L537.209 72.8021L538.377 73.8583ZM518.298 78.189L517.58 79.5898L517.594 79.5976L517.609 79.6047L518.298 78.189ZM513.968 74.3307L515.318 73.5205L512.393 68.6452V74.3307H513.968ZM529.165 51.9685L528.051 53.082L528.06 53.0909L528.069 53.0996L529.165 51.9685ZM516.487 51.9685L517.583 53.0996L517.584 53.099L516.487 51.9685ZM516.566 66.3779L515.453 67.4915L515.461 67.5001L515.47 67.5085L516.566 66.3779ZM529.086 66.3779L530.2 67.4915L529.086 66.3779ZM513.968 77.1653H502.393V80.315H513.968V77.1653ZM503.968 78.7402V21.7323H500.818V78.7402H503.968ZM502.393 23.3071H514.125V20.1575H502.393V23.3071ZM512.55 21.7323V43.3071H515.7V21.7323H512.55ZM515.428 44.1926C516.098 43.2068 517.283 42.2635 519.165 41.4436L517.906 38.5564C515.692 39.5213 513.938 40.7826 512.824 42.4216L515.428 44.1926ZM519.165 41.4436C520.985 40.6499 523.076 40.2362 525.464 40.2362V37.0866C522.708 37.0866 520.18 37.5653 517.906 38.5564L519.165 41.4436ZM525.464 40.2362C530.622 40.2362 534.571 41.9894 537.492 45.4289L539.893 43.39C536.305 39.1654 531.435 37.0866 525.464 37.0866V40.2362ZM537.507 45.4464C540.517 48.8859 542.078 53.3754 542.078 59.0551H545.228C545.228 52.7663 543.482 47.492 539.878 43.3724L537.507 45.4464ZM542.078 59.0551C542.078 64.7081 540.428 69.2476 537.21 72.8013L539.545 74.9152C543.361 70.6999 545.228 65.3706 545.228 59.0551H542.078ZM537.209 72.8021C534.062 76.2833 530.035 78.0315 524.991 78.0315V81.1811C530.868 81.1811 535.764 79.0976 539.546 74.9144L537.209 72.8021ZM524.991 78.0315C522.671 78.0315 520.682 77.5972 518.987 76.7728L517.609 79.6047C519.8 80.6701 522.273 81.1811 524.991 81.1811V78.0315ZM519.018 76.7881C517.287 75.8993 516.086 74.7993 515.318 73.5205L512.617 75.1409C513.74 77.0117 515.426 78.4839 517.58 79.5898L519.018 76.7881ZM512.393 74.3307V78.7402H515.543V74.3307H512.393ZM533.259 59.1339C533.259 55.7109 532.342 52.8531 530.261 50.8374L528.069 53.0996C529.348 54.3385 530.109 56.2576 530.109 59.1339H533.259ZM530.279 50.855C528.284 48.8605 525.775 47.874 522.865 47.874V51.0236C524.996 51.0236 526.686 51.7169 528.051 53.082L530.279 50.855ZM522.865 47.874C519.957 47.874 517.431 48.8596 515.391 50.8379L517.584 53.099C519.009 51.7179 520.735 51.0236 522.865 51.0236V47.874ZM515.392 50.8374C513.311 52.8531 512.393 55.7109 512.393 59.1339H515.543C515.543 56.2576 516.305 54.3385 517.583 53.0996L515.392 50.8374ZM512.393 59.1339C512.393 62.5325 513.352 65.3908 515.453 67.4915L517.68 65.2644C516.316 63.9005 515.543 61.9294 515.543 59.1339H512.393ZM515.47 67.5085C517.504 69.4802 519.999 70.4724 522.865 70.4724V67.3228C520.798 67.3228 519.094 66.6352 517.663 65.2474L515.47 67.5085ZM522.865 70.4724C525.732 70.4724 528.212 69.4791 530.2 67.4915L527.972 65.2644C526.601 66.6364 524.933 67.3228 522.865 67.3228V70.4724ZM530.2 67.4915C532.3 65.3908 533.259 62.5325 533.259 59.1339H530.109C530.109 61.9294 529.336 63.9005 527.972 65.2644L530.2 67.4915ZM564.73 93.7795V95.3543H565.754L566.169 94.4197L564.73 93.7795ZM552.131 93.7795L550.689 93.148L549.723 95.3543H552.131V93.7795ZM561.029 73.4646L562.472 74.0964L562.764 73.4302L562.446 72.7761L561.029 73.4646ZM544.572 39.6063V38.0315H542.057L543.157 40.2947L544.572 39.6063ZM557.958 39.6063L559.392 38.9542L558.972 38.0315H557.958V39.6063ZM567.486 60.5512L566.053 61.2032L567.555 64.5057L568.942 61.153L567.486 60.5512ZM576.147 39.6063V38.0315H575.095L574.692 39.0045L576.147 39.6063ZM588.824 39.6063L590.264 40.2463L591.249 38.0315H588.824V39.6063ZM564.73 92.2047H552.131V95.3543H564.73V92.2047ZM553.574 94.411L562.472 74.0964L559.587 72.8327L550.689 93.148L553.574 94.411ZM562.446 72.7761L545.989 38.9179L543.157 40.2947L559.613 74.153L562.446 72.7761ZM544.572 41.1811H557.958V38.0315H544.572V41.1811ZM556.525 40.2583L566.053 61.2032L568.92 59.8991L559.392 38.9542L556.525 40.2583ZM568.942 61.153L577.603 40.2081L574.692 39.0045L566.031 59.9494L568.942 61.153ZM576.147 41.1811H588.824V38.0315H576.147V41.1811ZM587.386 38.9663L563.291 93.1394L566.169 94.4197L590.264 40.2463L587.386 38.9663Z" fill="#B76E79"/>
<mask id="mask0" mask-type="alpha" maskUnits="userSpaceOnUse" x="0" y="16" width="123" height="80">
<path d="M122.548 16.5354H0V95.2756H122.548V16.5354Z" fill="white"/>
<path fill-rule="evenodd" clip-rule="evenodd" d="M42.3947 87.5866C42.7995 87.9409 43.3028 88.1173 43.8082 88.1173C44.3135 88.1173 44.8169 87.9409 45.2217 87.5866C48.3463 84.8543 51.318 82.3213 54.1134 79.9386L54.5529 79.5638C56.9193 77.5476 59.1658 75.6334 61.2742 73.7916C63.3827 75.6335 65.6294 77.5479 67.9958 79.5646L68.435 79.9386C71.2304 82.3213 74.202 84.8543 77.3267 87.5866C77.7314 87.9409 78.2348 88.1173 78.7402 88.1173C79.2457 88.1173 79.7488 87.9409 80.1535 87.5866C83.278 84.8543 86.2496 82.3213 89.0457 79.9386L89.485 79.5638C105.018 66.328 115.39 57.4901 115.39 44.6691C115.39 32.7113 106.938 23.6936 95.9197 23.6936C87.2354 23.6936 81.6614 29.7606 78.7402 35.2236C78.0705 33.9713 77.2613 32.6871 76.3073 31.4516C75.188 29.929 73.8712 28.5904 72.3921 27.4728C69.5347 25.2393 65.9438 23.6936 61.5605 23.6936C61.4649 23.6936 61.3694 23.6943 61.2742 23.6957C61.179 23.6943 61.0835 23.6936 60.9879 23.6936C56.6046 23.6936 53.0136 25.2393 50.1562 27.4728C48.6772 28.5904 47.3603 29.929 46.2411 31.4516C45.287 32.6871 44.4779 33.9713 43.8082 35.2236C40.8869 29.7606 35.3127 23.6936 26.6285 23.6936C15.6102 23.6936 7.1582 32.7113 7.1582 44.6691C7.1582 57.4901 17.5304 66.3283 33.0639 79.5646L33.5029 79.9386C36.2983 82.3213 39.27 84.8543 42.3947 87.5866ZM46.2411 31.4516C43.6258 35.0094 42.0902 39.5722 42.0902 44.6691C42.0902 55.5367 49.5428 63.5429 61.2742 73.7916C73.0056 63.5429 80.4583 55.5368 80.4583 44.6691C80.4583 39.5722 78.9228 35.0094 76.3073 31.4516C75.2002 30.018 73.898 28.6498 72.3921 27.4728C69.2894 25.1279 65.4735 23.7554 61.2742 23.6957C57.0749 23.7554 53.259 25.1279 50.1562 27.4728C48.6502 28.6498 47.3482 30.018 46.2411 31.4516Z" fill="black"/>
</mask>
<g mask="url(#mask0)">
<path d="M42.3946 87.5866L47.1109 82.2024L47.1089 82.2L47.1069 82.1984L42.3946 87.5866ZM45.2216 87.5866L40.5094 82.1984L40.5073 82.2L40.5054 82.2024L45.2216 87.5866ZM54.1134 79.9386L49.4707 74.4902L49.4702 74.4905L54.1134 79.9386ZM54.5528 79.5638L49.9102 74.1155V74.1157L54.5528 79.5638ZM67.9958 79.5646L72.6386 74.1161L72.6385 74.116L67.9958 79.5646ZM68.4349 79.9386L73.0779 74.4905L73.0776 74.4902L68.4349 79.9386ZM77.3267 87.5866L82.0425 82.2024L82.0409 82.2L82.0386 82.1984L77.3267 87.5866ZM80.1535 87.5866L75.4413 82.1984L75.4393 82.2L75.4373 82.2024L80.1535 87.5866ZM89.0457 79.9386L84.4024 74.4902V74.4905L89.0457 79.9386ZM89.485 79.5638L84.8425 74.1155V74.1157L89.485 79.5638ZM78.7401 35.2236L72.4277 38.5991L78.7401 50.4037L85.0527 38.5991L78.7401 35.2236ZM43.8081 35.2236L37.4957 38.5991L43.8081 50.4037L50.1205 38.5991L43.8081 35.2236ZM33.0639 79.5646L37.7066 74.1161L37.7065 74.116L33.0639 79.5646ZM33.5029 79.9386L38.146 74.4905L38.1457 74.4902L33.5029 79.9386ZM43.8081 80.9591C44.9715 80.9591 46.1613 81.3701 47.1109 82.2024L37.6784 92.9716C39.4375 94.5126 41.634 95.2756 43.8081 95.2756V80.9591ZM40.5054 82.2024C41.455 81.3701 42.6448 80.9591 43.8081 80.9591V95.2756C45.9822 95.2756 48.1788 94.5126 49.9379 92.9716L40.5054 82.2024ZM49.4702 74.4905C46.6777 76.8705 43.6731 79.4315 40.5094 82.1984L49.9339 92.9756C53.0194 90.2772 55.9582 87.7717 58.7565 85.3866L49.4702 74.4905ZM49.9102 74.1157L49.4707 74.4902L58.756 85.3866L59.1955 85.0126L49.9102 74.1157ZM56.5647 68.4007C54.4956 70.2082 52.2839 72.0929 49.9102 74.1155L59.1955 85.0126C61.5546 83.0024 63.8359 81.0583 65.9836 79.1819L56.5647 68.4007ZM72.6385 74.116C70.2646 72.0932 68.0528 70.2083 65.9836 68.4007L56.5646 79.1819C58.7125 81.0591 60.9941 83.0024 63.3531 85.0126L72.6385 74.116ZM73.0776 74.4902L72.6386 74.1161L63.3531 85.0126L63.7922 85.3866L73.0776 74.4902ZM82.0386 82.1984C78.8748 79.4315 75.8705 76.8705 73.0779 74.4905L63.7918 85.3866C66.5901 87.7717 69.5288 90.2772 72.6144 92.9756L82.0386 82.1984ZM78.7401 80.9591C79.9031 80.9591 81.0929 81.3701 82.0425 82.2024L72.6104 92.9716C74.3694 94.5126 76.5661 95.2756 78.7401 95.2756V80.9591ZM75.4373 82.2024C76.3869 81.3701 77.5768 80.9591 78.7401 80.9591V95.2756C80.9142 95.2756 83.111 94.5126 84.8701 92.9716L75.4373 82.2024ZM84.4024 74.4905C81.6095 76.8705 78.6051 79.4315 75.4413 82.1984L84.8661 92.9756C87.9512 90.2772 90.8898 87.7717 93.6882 85.3866L84.4024 74.4905ZM84.8425 74.1157L84.4024 74.4902L93.6882 85.3866L94.1276 85.0126L84.8425 74.1157ZM108.231 44.6691C108.231 48.8676 106.63 52.7174 102.753 57.3909C98.7008 62.2761 92.7724 67.358 84.8425 74.1155L94.1276 85.0126C101.731 78.534 108.755 72.579 113.772 66.5311C118.965 60.2713 122.548 53.2917 122.548 44.6691H108.231ZM95.9197 30.8518C102.511 30.8518 108.231 36.1736 108.231 44.6691H122.548C122.548 29.2488 111.365 16.5354 95.9197 16.5354V30.8518ZM85.0527 38.5991C87.4094 34.1909 91.0606 30.8518 95.9197 30.8518V16.5354C83.4102 16.5354 75.9132 25.3302 72.4277 31.8481L85.0527 38.5991ZM70.6416 35.8265C71.3291 36.7168 71.9264 37.6614 72.4277 38.5991L85.0527 31.8481C84.2142 30.281 83.1937 28.6573 81.9724 27.0765L70.6416 35.8265ZM68.0764 33.1837C68.9915 33.8753 69.8223 34.7153 70.5395 35.6912L82.0748 27.2119C80.5535 25.1426 78.7504 23.3055 76.7078 21.7619L68.0764 33.1837ZM61.5605 30.8518C64.1315 30.8518 66.2051 31.7221 67.9838 33.1125L76.8004 21.833C72.8643 18.7564 67.7559 16.5354 61.5605 16.5354V30.8518ZM61.3759 30.8531C61.4372 30.8523 61.4987 30.8518 61.5605 30.8518V16.5354C61.4309 16.5354 61.3015 16.5364 61.1724 16.5382L61.3759 30.8531ZM60.9878 30.8518C61.0495 30.8518 61.111 30.8523 61.1724 30.8531L61.3759 16.5382C61.2468 16.5364 61.1173 16.5354 60.9878 16.5354V30.8518ZM54.5645 33.1125C56.3431 31.7221 58.4167 30.8518 60.9878 30.8518V16.5354C54.7924 16.5354 49.684 18.7564 45.7479 21.833L54.5645 33.1125ZM52.0087 35.6912C52.726 34.7153 53.5568 33.8753 54.4718 33.1837L45.8405 21.7619C43.7977 23.3055 41.9946 25.1426 40.4734 27.2119L52.0087 35.6912ZM50.1205 38.5991C50.6219 37.6614 51.2191 36.7168 51.9066 35.8265L40.5755 27.0765C39.3547 28.6573 38.3339 30.281 37.4957 31.8481L50.1205 38.5991ZM26.6285 30.8518C31.4875 30.8518 35.1386 34.1909 37.4957 38.5991L50.1205 31.8481C46.6352 25.3302 39.1379 16.5354 26.6285 16.5354V30.8518ZM14.3164 44.6691C14.3164 36.1736 20.0372 30.8518 26.6285 30.8518V16.5354C11.1831 16.5354 0 29.2488 0 44.6691H14.3164ZM37.7065 74.116C29.7759 67.3583 23.848 62.2765 19.7954 57.3909C15.9185 52.7174 14.3164 48.8676 14.3164 44.6691H0C0 53.2917 3.58388 60.2713 8.77654 66.5313C13.7935 72.5791 20.8183 78.5343 28.4212 85.0126L37.7065 74.116ZM38.1457 74.4902L37.7066 74.1161L28.4212 85.0126L28.8601 85.3866L38.1457 74.4902ZM47.1069 82.1984C43.9431 79.4315 40.9386 76.8705 38.146 74.4905L28.8598 85.3866C31.6581 87.7717 34.5969 90.2772 37.6824 92.9756L47.1069 82.1984ZM49.2483 44.6691C49.2483 41.0224 50.3402 37.9609 52.0087 35.6912L40.4734 27.2119C36.9112 32.058 34.932 38.1221 34.932 44.6691H49.2483ZM65.9836 68.4007C53.9386 57.878 49.2483 51.8713 49.2483 44.6691H34.932C34.932 59.2021 45.1468 69.2076 56.5646 79.1819L65.9836 68.4007ZM73.2999 44.6691C73.2999 51.8714 68.6097 57.8782 56.5647 68.4007L65.9836 79.1819C77.4014 69.2076 87.6165 59.2023 87.6165 44.6691H73.2999ZM70.5395 35.6912C72.2079 37.9609 73.2999 41.0224 73.2999 44.6691H87.6165C87.6165 38.1221 85.637 32.058 82.0748 27.2119L70.5395 35.6912ZM67.9838 33.1125C68.9514 33.8689 69.8425 34.7917 70.6416 35.8265L81.9724 27.0765C80.5575 25.2442 78.8441 23.4308 76.8004 21.833L67.9838 33.1125ZM61.1724 30.8531C63.835 30.891 66.1775 31.7486 68.0763 33.1837L76.7078 21.7619C72.4011 18.5072 67.1118 16.6198 61.3759 16.5382L61.1724 30.8531ZM54.4718 33.1837C56.3708 31.7486 58.7134 30.891 61.3759 30.8531L61.1724 16.5382C55.4365 16.6198 50.1472 18.5072 45.8405 21.7619L54.4718 33.1837ZM51.9066 35.8265C52.7057 34.7917 53.5968 33.8689 54.5645 33.1125L45.7479 21.833C43.7038 23.4308 41.9904 25.2442 40.5755 27.0765L51.9066 35.8265Z" fill="#B76E79"/>
</g>
</g>
<defs>
<clipPath id="clip0">
<rect width="591.339" height="100" fill="white"/>
</clipPath>
</defs>
</svg>
